PathFileType	4	(X/Y/Z)	RBDS017\RBDS017runT35.trc
DataRate	CameraRate	NumFrames	NumMarkers	Units	OrigDataRate	OrigDataStartFrame	OrigNumFrames
150.000000	150.000000	5	33	mm	150.000000	2250	4500
Frame#	Time	L.ASIS			L.Heel.Bottom			L.Heel.Lateral			L.Heel.Top			L.Iliac.Crest			L.MT1			L.MT5			L.PSIS			L.Shank.Bottom.Lateral			L.Shank.Bottom.Medial			L.Shank.Top.Lateral			L.Shank.Top.Medial			L.Thigh.Bottom.Lateral			L.Thigh.Bottom.Medial			L.Thigh.Top.Lateral			L.Thigh.Top.Medial			R.ASIS			R.ASY			R.Heel.Bottom			R.Heel.Lateral			R.Heel.Top			R.Iliac.Crest			R.MT1			R.MT5			R.PSIS			R.Shank.Bottom.Lateral			R.Shank.Bottom.Medial			R.Shank.Top.Lateral			R.Shank.Top.Medial			R.Thigh.Bottom.Lateral			R.Thigh.Bottom.Medial			R.Thigh.Top.Lateral			R.Thigh.Top.Medial			
		X1	Y1	Z1	X2	Y2	Z2	X3	Y3	Z3	X4	Y4	Z4	X5	Y5	Z5	X6	Y6	Z6	X7	Y7	Z7	X8	Y8	Z8	X9	Y9	Z9	X10	Y10	Z10	X11	Y11	Z11	X12	Y12	Z12	X13	Y13	Z13	X14	Y14	Z14	X15	Y15	Z15	X16	Y16	Z16	X17	Y17	Z17	X18	Y18	Z18	X19	Y19	Z19	X20	Y20	Z20	X21	Y21	Z21	X22	Y22	Z22	X23	Y23	Z23	X24	Y24	Z24	X25	Y25	Z25	X26	Y26	Z26	X27	Y27	Z27	X28	Y28	Z28	X29	Y29	Z29	X30	Y30	Z30	X31	Y31	Z31	X32	Y32	Z32	X33	Y33	Z33	

2251	15	2234.292035883926	1078.856960319365	886.3765748871575	2061.311166429334	176.4910327101925	970.8653269438704	2080.926267758833	183.4843517466252	929.4534782570692	2086.748611279228	214.4128058123177	966.7502316421654	2172.339568948187	1182.178742323153	844.7385678257067	2278.305733211382	102.0990399448304	965.8213062224388	2218.115458730239	99.83249415819898	868.9027060903845	2064.61994135244	1149.38325236845	971.3119717595577	2184.768241787415	296.704200319762	894.0547725464845	2151.049341562385	314.0420064080352	934.3347182082636	2207.151762492245	373.0611994194695	880.6162189980583	2174.336546245695	390.6796986252444	919.5631787459221	2311.499671222403	738.8136532403598	839.9468943478356	2256.182589617414	700.4211545807635	867.0930472922607	2242.723366426586	824.5421132542692	831.2899139391944	2191.441500784911	789.4393622088127	860.1300131407482	2226.191773907558	1054.357401285393	1162.38994695395	1774.4891770439	97.14059264646232	1139.091560681275	1618.745238866953	218.7853118507509	1090.195779838852	1638.880864418741	211.9719359062498	1136.898507924983	1658.004579552603	241.1423713916335	1103.776095347087	2205.451773365496	1149.034225498354	1196.730732399976	1776.580809782832	66.04056134989995	1089.306677916284	1715.840220846549	75.80666000793916	1189.588911836444	2067.724851595248	1145.04732663243	1074.952966454643	1747.919379200844	294.6468256127595	1166.129980003333	1722.981688235796	313.0433994027774	1124.796654764207	1786.51804307528	370.1585727207457	1175.001400408827	1754.640263965659	387.0495861295354	1135.091466843697	2001.626601287123	705.0956168020876	1184.849577016568	1948.037614879691	720.7097431757797	1137.364933899207	2021.951864993231	812.7336583952854	1191.172355809664	1973.510577343289	827.2366766741017	1143.299047928833	
2252	15.00666666666667	2235.46088635859	1083.21892719557	886.5024062143821	2089.367961281093	157.3980267500934	972.0321641297697	2107.919520971427	165.7952724973297	930.425858428118	2111.849041039284	197.050498496043	967.6863848230289	2172.854497089694	1187.268931995722	844.2520047830137	2310.867557876287	99.06649990729969	965.0800416453848	2250.228252933084	92.35536947874242	868.6846589196646	2066.283312744416	1153.100415275583	971.236232471811	2203.105510019459	286.5913335894984	894.5816816566257	2168.978792987493	301.4540275886677	935.4165199763868	2220.121163360235	364.2978594080676	881.136100705975	2186.84288309002	379.5074214665302	920.7179630655146	2309.202649838263	739.285581991031	841.2714363695719	2253.39071843575	701.6071356843881	868.3697165448237	2241.524211871986	825.8796145942306	832.5121181391182	2189.786383504631	791.4875648408662	861.368524088619	2227.892165523137	1057.483741505277	1161.481434412763	1758.376844706933	103.2009336855412	1140.682840048279	1609.666006630641	233.9189997862851	1090.660944567971	1629.024460700914	225.9624385869228	1137.553984398116	1650.265703954862	253.927045157989	1104.632860413245	2208.775092934658	1153.466657379741	1195.431107877528	1759.159965174119	71.32803906127748	1091.111125572714	1698.09171550315	84.80864409293584	1190.451218415654	2069.451259643073	1148.624776127099	1074.982154078424	1738.275442453246	303.389015490016	1167.157934426873	1713.806167043851	321.632991616764	1125.52403890609	1777.725463470422	378.5581392444857	1175.519379558193	1746.337395650103	395.3669069349853	1135.171713156456	1997.976000004363	710.7061038713634	1184.43122009942	1944.649378484964	727.2216218173867	1136.843949559621	2020.190267508124	817.9860130262033	1190.700577335539	1972.21595023021	833.2286603400848	1142.554417987339	
2253	15.01333333333333	2236.328674135695	1086.9112735389	886.5014389852137	2118.019890864542	139.6809353838563	972.98373552959	2135.353196765245	149.4457222273336	931.1893034699019	2137.421888413197	180.8574612200126	968.4248825692541	2172.953929820069	1191.744787189061	843.8882240599868	2342.822189142913	97.72154346174968	964.0279218402566	2282.066597418607	86.55974690438187	868.1541322332746	2067.780769871867	1156.319921278871	971.0715978082974	2221.382774781537	277.1626046543294	894.9286669736273	2187.018754387311	289.5580584504015	936.3090922217816	2232.984714739339	355.8209332352034	881.4953420676768	2199.394281299671	368.6371325061141	921.6886851616744	2306.142735060382	738.7624127955721	842.432829311125	2249.933080537633	701.9447863064303	869.8030398557045	2239.672114429999	826.2941444771036	833.645027538454	2187.568089746528	792.7449642293782	862.7496862198308	2229.417021982629	1060.395143537449	1160.669823809949	1742.441664662174	110.3324705862449	1141.990802452015	1600.621836871977	249.0630872117628	1090.807012159753	1619.239698176757	240.1791764786066	1137.882755458743	1642.374353471153	266.8476742780905	1105.059060561792	2211.469207949537	1157.547141072081	1194.171503878895	1741.957092419047	77.65981328237396	1092.713870638665	1680.811622279847	94.88224589026323	1191.187493306181	2070.971642342703	1151.816830545119	1074.873000234502	1728.966034862587	312.3654571965018	1167.803109768673	1704.996220665613	330.6589723650293	1125.98116010471	1769.616930743764	386.9470089590187	1175.789642925704	1738.762244212672	403.8995598956057	1135.099041558357	1995.464878226769	715.5559249931135	1184.065020439047	1942.285162123904	732.8113475172486	1136.478595051085	2019.208712861989	822.515356307523	1190.348620365572	1971.523563040713	838.3811101977784	1142.093222334477	
2254	15.02	2236.912933609357	1089.890410251835	886.3600242856658	2146.943797258481	123.5541274198259	973.693607192293	2162.93156990282	134.6251819789746	931.7247375096497	2163.187184161126	166.0309020518896	968.9420789468631	2172.693504320883	1195.495308733721	843.6312272792617	2373.846894840524	98.07572651376223	962.7034631355385	2313.311750072261	82.49721108344038	867.3372455446829	2069.080986965856	1159.013076391186	970.7921091131606	2239.439471228764	268.5519382269165	895.0968198426322	2204.975927019502	278.5089130341161	936.9880611212233	2245.642093393717	347.7692177148264	881.7072196615757	2211.858647817851	358.2246491256782	922.4573631789639	2302.39674578641	737.3335662792076	843.367841376479	2245.902745090837	701.5155137721506	871.3340595577962	2237.218364990537	825.8495144122974	834.5991767197069	2184.865761042662	793.2673588950262	864.2001101223739	2230.759956717011	1063.083734915995	1159.951854394573	1726.69265881331	118.525847717549	1142.926728730857	1591.47467354731	264.2267163118437	1090.65759894608	1609.436852854863	254.6006797498291	1137.893116731225	1634.20359921299	279.9353719432689	1105.065157253938	2213.520352092937	1161.257839811447	1192.961312259723	1724.944217275894	85.08971077767131	1093.99000416184	1664.021252261688	105.9517941403144	1191.738518411289	2072.272512391166	1154.601562666977	1074.610870072966	1719.952984284597	321.6163667265034	1168.056763442499	1696.527714756246	340.1814136585505	1126.150912506868	1762.158756834397	395.3386874405826	1175.811380231943	1731.895344833668	412.6799159802849	1134.877294349851	1994.106908234759	719.5511879098536	1183.788711196248	1940.957118935016	737.3851142273037	1136.300626076845	2019.007928082435	826.2451450274549	1190.147346196708	1971.420123504509	842.6203941507193	1141.951532365335	
2255	15.02666666666667	2237.242734612042	1092.13359684247	886.0740649231604	2175.75560111775	109.1835715940965	974.1441924993676	2190.310889958468	121.4728895969689	932.0212177436812	2188.810211418966	152.72552068996	969.2193233417501	2172.139529334164	1198.424840962163	843.4525084384533	2403.598477044035	100.0682026190399	961.1659400286479	2343.614856887449	80.14859346891973	866.2809662946365	2070.156652318253	1161.159590772586	970.3864652515792	2257.087849464329	260.8689151725441	895.0911834178265	2222.629185724427	268.4346031226187	937.4354563795029	2257.971670053945	340.2712200999119	881.7879528907295	2224.083676770489	348.4116790493039	923.0125937054319	2298.067923006642	735.1171690979837	844.0314998602021	2241.412830941867	700.4240991781459	872.9021221761971	2234.240647448856	824.640062083432	835.3015539912477	2181.777743704014	793.1364656219291	865.6483397895391	2231.92387867461	1065.535646669029	1159.319918231524	1711.159926170387	127.7335620650015	1143.420350092651	1582.183648943624	279.4484687687412	1090.254838688749	1599.605165973213	269.2207331938989	1137.613023834028	1625.728827529251	293.2294511746665	1104.689394212317	2214.94796863128	1164.585572553995	1191.805740579179	1708.123004382669	93.63711068087626	1094.831302074062	1647.748160834124	117.9207598379671	1192.045928417462	2073.346227715651	1156.959775488932	1074.19433331208	1711.248780979219	331.1639807992054	1167.937660648225	1688.423116853989	350.2285648411817	1126.040882730732	1755.346227274462	403.7390880110108	1175.600630218999	1725.742121802978	421.7178417130792	1134.524892797255	1993.889367136808	722.6172611012895	1183.633225399246	1940.656968786583	740.868965092191	1136.328635788458	2019.569678307141	829.1141544200839	1190.117605424705	1971.887556471482	845.8849525530104	1142.141815199165	
